<svg xmlns="http://www.w3.org/2000/svg" width="16.53" height="21.78" viewBox="0 0 16.53 21.78"><title>bills</title><path d="M16,19.83l-1,1.22a.64.64,0,0,1-.9.1l0,0-.65-.58a.66.66,0,0,0-.86,0l-.72.61a.66.66,0,0,1-.86,0l-.72-.61a.66.66,0,0,0-.86,0l-.72.61a.66.66,0,0,1-.86,0l-.72-.61a.66.66,0,0,0-.86,0l-.72.61a.66.66,0,0,1-.86,0l-.72-.61a.66.66,0,0,0-.86,0l-.61.54A.66.66,0,0,1,1.51,21l0,0-1-1.19L.54,2l1-1.22a.64.64,0,0,1,.9-.1l0,0,.65.57a.66.66,0,0,0,.86,0L4.67.7a.66.66,0,0,1,.86,0l.72.61a.66.66,0,0,0,.86,0L7.84.7A.66.66,0,0,1,8.7.7l.72.61a.66.66,0,0,0,.86,0L11,.7a.66.66,0,0,1,.86,0l.72.61a.66.66,0,0,0,.86,0l.61-.54A.66.66,0,0,1,15,.84l0,0,1,1.22Z" transform="translate(0 -0.04)" fill="none" stroke="#00adef" stroke-miterlimit="10"/><line x1="8.41" y1="6.92" x2="8.41" y2="5.66" fill="none" stroke="#00adef" stroke-linecap="round" stroke-miterlimit="10"/><line x1="8.41" y1="16.23" x2="8.41" y2="14.86" fill="none" stroke="#00adef" stroke-linecap="round" stroke-miterlimit="10"/><path d="M5.43,13A7.82,7.82,0,0,0,9,14.9c1.22.18,2-.25,2.19-1.29.18-1.51-2.16-2.55-3.81-3.27-1.4-.61-2-1.51-1.69-2.52,1-2.3,5.25.5,5.25.5" transform="translate(0 -0.04)" fill="none" stroke="#00adef" stroke-linecap="round" stroke-miterlimit="10"/></svg>