<svg xmlns="http://www.w3.org/2000/svg" width="21.45" height="18.76" viewBox="0 0 21.45 18.76"><title>cash-withdrawal</title><line x1="10.73" y1="5.16" x2="10.73" y2="3.84" fill="none" stroke="#00adef" stroke-linecap="round" stroke-miterlimit="10"/><line x1="10.73" y1="14.99" x2="10.73" y2="13.56" fill="none" stroke="#00adef" stroke-linecap="round" stroke-miterlimit="10"/><path d="M7.57,11.51a8.39,8.39,0,0,0,3.77,2c1.29.18,2.19-.29,2.33-1.36.22-1.58-2.3-2.69-4-3.44C8.18,8.07,7.5,7.14,7.86,6.06c1.11-2.44,5.56.54,5.56.54" fill="none" stroke="#00adef" stroke-linecap="round" stroke-miterlimit="10"/><path d="M14.06.5h3a2.71,2.71,0,0,1,2.69,2.69V6" fill="none" stroke="#00adef" stroke-linecap="round" stroke-miterlimit="10"/><path d="M2,5.85V3.19A2.68,2.68,0,0,1,4.63.5H7.28" fill="none" stroke="#00adef" stroke-linecap="round" stroke-miterlimit="10"/><path d="M7.28,18.26H4.63A2.68,2.68,0,0,1,2,15.57v-2" fill="none" stroke="#00adef" stroke-linecap="round" stroke-miterlimit="10"/><path d="M19.69,13.31v2.26A2.71,2.71,0,0,1,17,18.26H14" fill="none" stroke="#00adef" stroke-linecap="round" stroke-miterlimit="10"/><line x1="0.5" y1="9.76" x2="4.95" y2="9.76" fill="none" stroke="#00adef" stroke-linecap="round" stroke-miterlimit="10"/><line x1="16.5" y1="9.76" x2="20.95" y2="9.76" fill="none" stroke="#00adef" stroke-linecap="round" stroke-miterlimit="10"/></svg>