<svg xmlns="http://www.w3.org/2000/svg" width="23.38" height="21.27" viewBox="0 0 23.38 21.27"><title>donations</title><path d="M11.77,5.08S14.23.35,17.36.35,23,3,23,6.6c0,4.89-11.26,14.31-11.26,14.31S.35,11.49.35,6.6C.35,3,2.89.35,6,.35S11.77,5.08,11.77,5.08Z" transform="translate(0 0)" fill="none" stroke="#00adef" stroke-linejoin="round" stroke-width="0.7"/><path d="M4.18.66S.11,3.48,3.59,7.58c1.72,2,8.17,9.54,8.17,13.26,0-3.83,6.26-11.22,8-13.26C23.26,3.48,19.2.66,19.2.66" transform="translate(0 0)" fill="none" stroke="#00adef" stroke-linejoin="round" stroke-width="0.7"/><path d="M2.54,5.94S3,3.44,6.8,3.44c1.88,0,3.4,1.64,4.89,1.64s3-1.64,4.89-1.64c3.75,0,4.26,2.5,4.26,2.5" transform="translate(0 0)" fill="none" stroke="#00adef" stroke-linejoin="round" stroke-width="0.7"/></svg>