<svg xmlns="http://www.w3.org/2000/svg" width="22.08" height="22.06" viewBox="0 0 22.08 22.06"><title>missions</title><path d="M9.67,21.81A9.41,9.41,0,1,1,9.48,3h.19a9.29,9.29,0,0,1,5.22,1.59.3.3,0,1,1-.35.5,8.8,8.8,0,1,0,3.9,7.31,8.61,8.61,0,0,0-1.61-5.07.3.3,0,0,1,.5-.35A9.42,9.42,0,0,1,9.67,21.81Zm0-3.16A6.26,6.26,0,1,1,13,7.07a.31.31,0,1,1-.28.55l0,0a5.67,5.67,0,1,0,2.68,4.82,5.5,5.5,0,0,0-.75-2.78.31.31,0,0,1,.55-.3A6.42,6.42,0,0,1,16,12.41,6.3,6.3,0,0,1,9.67,18.66Zm0-3.83a2.44,2.44,0,0,1-.77-4.75.3.3,0,1,1,.22.56h0a1.81,1.81,0,1,0,2.31,2.29.3.3,0,0,1,.59.13v0a2.39,2.39,0,0,1-2.29,1.71Zm.3-2.44a.27.27,0,0,1-.22-.1.33.33,0,0,1-.07-.3l.72-2.68a.29.29,0,0,1,.22-.22.33.33,0,0,1,.3.07l.8.8,6-6L17.6,2.43a.27.27,0,0,1,.1-.22L19.56.34a.38.38,0,0,1,.32-.08.29.29,0,0,1,.2.27l0,1.47h1.32a.29.29,0,0,1,.27.2.26.26,0,0,1-.08.32L19.81,4.36a.61.61,0,0,1-.22.1H18.07l-6,6,.8.8a.33.33,0,0,1,.07.3.29.29,0,0,1-.22.22l-1,.27h0L10,12.39h0ZM10.84,10l-.45,1.71,1.22-.27.52-.15Zm7.43-6.14h1.22L20.73,2.6H20a.45.45,0,0,1-.47-.43v0l0-.89-1.3,1.29Z" transform="translate(0.08 0)" fill="#00adef" stroke="#00adef" stroke-width="0.5"/></svg>