<svg xmlns="http://www.w3.org/2000/svg" width="21.34" height="23.07" viewBox="0 0 21.34 23.07"><title>project-funding</title><line x1="10.69" y1="1.44" x2="10.69" y2="0.5" fill="none" stroke="#00adef" stroke-linecap="round" stroke-miterlimit="10"/><line x1="10.69" y1="8.27" x2="10.69" y2="7.28" fill="none" stroke="#00adef" stroke-linecap="round" stroke-miterlimit="10"/><path d="M8.47,5.88a5.66,5.66,0,0,0,2.63,1.4c.9.12,1.52-.2,1.6-.95C12.83,5.23,11.1,4.49,9.91,4c-1-.45-1.48-1.11-1.23-1.85.78-1.68,3.86.37,3.86.37" transform="translate(0)" fill="none" stroke="#00adef" stroke-linecap="round" stroke-miterlimit="10"/><line x1="2.72" y1="15.7" x2="2.72" y2="14.8" fill="none" stroke="#00adef" stroke-linecap="round" stroke-miterlimit="10"/><line x1="2.72" y1="22.57" x2="2.72" y2="21.54" fill="none" stroke="#00adef" stroke-linecap="round" stroke-miterlimit="10"/><path d="M.5,20.14a5.66,5.66,0,0,0,2.63,1.4c.9.12,1.52-.21,1.6-.94.12-1.11-1.6-1.85-2.79-2.38C.91,17.76.46,17.1.7,16.36c.78-1.73,3.86.33,3.86.33" transform="translate(0)" fill="none" stroke="#00adef" stroke-linecap="round" stroke-miterlimit="10"/><line x1="18.79" y1="15.7" x2="18.79" y2="14.8" fill="none" stroke="#00adef" stroke-linecap="round" stroke-miterlimit="10"/><line x1="18.79" y1="22.57" x2="18.79" y2="21.54" fill="none" stroke="#00adef" stroke-linecap="round" stroke-miterlimit="10"/><path d="M16.61,20.14a5.66,5.66,0,0,0,2.63,1.4c.9.12,1.52-.21,1.6-.94.12-1.11-1.6-1.85-2.79-2.38-1-.45-1.48-1.11-1.23-1.85.78-1.69,3.86.37,3.86.37" transform="translate(0)" fill="none" stroke="#00adef" stroke-linecap="round" stroke-miterlimit="10"/><path d="M6.62,17.43l3.86-2.22V10.73a.24.24,0,0,1,.23-.25h0a.22.22,0,0,1,.25.25v4.44l3.86,2.22a.26.26,0,0,1,.08.33.23.23,0,0,1-.2.12.15.15,0,0,1-.12,0l-3.86-2.21L6.83,17.8a.15.15,0,0,1-.12,0,.23.23,0,0,1-.2-.12.21.21,0,0,1,.1-.28Z" transform="translate(0)" fill="#00adef" stroke="#00adef" stroke-miterlimit="10" stroke-width="0.5"/></svg>