<svg xmlns="http://www.w3.org/2000/svg" width="20.87" height="20.94" viewBox="0 0 20.87 20.94"><title>settings</title><path d="M10.47,12.78a2.31,2.31,0,1,0-2.31-2.31A2.31,2.31,0,0,0,10.47,12.78Zm0-3.46a1.13,1.13,0,1,1-1.13,1.13,1.11,1.11,0,0,1,1.09-1.13Z" transform="translate(0 0)" fill="#00adef"/><path d="M.67,12.51H2.44a8.31,8.31,0,0,0,.89,2.15L2.06,15.93a.74.74,0,0,0,.07,1L4,18.8a.74.74,0,0,0,1,.07L6.24,17.6a8.31,8.31,0,0,0,2.15.89V20.2a.78.78,0,0,0,.81.73h2.45a.76.76,0,0,0,.82-.62V18.49a8.31,8.31,0,0,0,2.15-.89l1.24,1.24a.76.76,0,0,0,1,0l1.93-1.93a.72.72,0,0,0,0-.93l-1.29-1.29a8.31,8.31,0,0,0,.89-2.15h1.8a.77.77,0,0,0,.67-.76V9.16a.77.77,0,0,0-.67-.76H18.4a8.31,8.31,0,0,0-.89-2.15L18.8,5a.77.77,0,0,0,0-.84L16.8,2a.79.79,0,0,0-.84.07L14.69,3.33a8.31,8.31,0,0,0-2.15-.89V.62A.81.81,0,0,0,11.69,0H9.25a.78.78,0,0,0-.84.7V2.44a8.31,8.31,0,0,0-2.15.89L5,2a.77.77,0,0,0-.84,0L2,4.08a.77.77,0,0,0,0,.91L3.35,6.26a8.31,8.31,0,0,0-.89,2.15H.67a.74.74,0,0,0-.67.8v2.48A.78.78,0,0,0,.67,12.51Zm.51-2.93H2.88a.81.81,0,0,0,.67-.64h0a6.91,6.91,0,0,1,.89-2.18.2.2,0,0,1,.06-.11.8.8,0,0,0,0-.87L3.31,4.55,4.55,3.31,5.7,4.46h0a.78.78,0,0,0,1,0c.09,0,.11-.07.13-.07a7.21,7.21,0,0,1,2-.84l.11,0a.79.79,0,0,0,.64-.64V1.17h1.75V2.84a.79.79,0,0,0,.67.71c.07,0,.09,0,.11,0a7.29,7.29,0,0,1,2,.82.17.17,0,0,1,.13.07.77.77,0,0,0,1,0h0l1.15-1.15,1.24,1.24-1.2,1.22a.82.82,0,0,0,0,.89.34.34,0,0,1,.07.13,6.35,6.35,0,0,1,.84,2.09s0,0,0,.09a.77.77,0,0,0,.67.64h1.71v1.75H18a.82.82,0,0,0-.67.64s0,.07,0,.09a6.92,6.92,0,0,1-.86,2.09.38.38,0,0,1,0,.11.76.76,0,0,0,0,.93l1.2,1.2-1.24,1.26-1.2-1.2a.78.78,0,0,0-.93,0l-.11,0a6.92,6.92,0,0,1-2.09.86s0,0-.09,0a.79.79,0,0,0-.67.71v1.64H9.59V18a.81.81,0,0,0-.64-.64l-.07,0a7.42,7.42,0,0,1-2.13-.86s0,0-.09,0a.77.77,0,0,0-1,0L4.53,17.64,3.26,16.42,4.48,15.2a.79.79,0,0,0,0-.91s0-.07,0-.09A6.83,6.83,0,0,1,3.55,12h0c-.15-.56-.53-.64-.67-.64H1.18Z" transform="translate(0 0)" fill="#00adef"/></svg>