<svg xmlns="http://www.w3.org/2000/svg" width="21.14" height="20.39" viewBox="0 0 21.14 20.39"><title>shops</title><path d="M3.07,1.4H17.69l1.49,6.42v.09H1.49V7.82L3.07,1.4M17.78,0H3.07a1.37,1.37,0,0,0-1.3,1L.28,7.45a1.34,1.34,0,0,0,1.3,1.77H19.28a1.37,1.37,0,0,0,1.31-1.77L19.09,1A1.37,1.37,0,0,0,17.78,0Z" transform="translate(0)" fill="#00adef"/><line x1="7.92" y1="0.56" x2="6.8" y2="8.94" fill="none" stroke="#00adef" stroke-miterlimit="10" stroke-width="1.49"/><line x1="12.94" y1="0.56" x2="14.06" y2="8.94" fill="none" stroke="#00adef" stroke-miterlimit="10" stroke-width="1.49"/><path d="M.75,11.55V18.9a.8.8,0,0,0,.74.75H19.65a.8.8,0,0,0,.75-.75V11.55" transform="translate(0)" fill="none" stroke="#00adef" stroke-linecap="round" stroke-miterlimit="10" stroke-width="1.49"/><line x1="17.6" y1="11.55" x2="14.16" y2="14.15" fill="none" stroke="#00adef" stroke-linecap="round" stroke-miterlimit="10" stroke-width="1.49"/><line x1="17.6" y1="14.43" x2="14.16" y2="17.04" fill="none" stroke="#00adef" stroke-linecap="round" stroke-miterlimit="10" stroke-width="1.49"/><path d="M11.73,18.81V12.57a.64.64,0,0,0-.62-.65H6.43a.64.64,0,0,0-.65.62s0,0,0,0v6.8" transform="translate(0)" fill="none" stroke="#00adef" stroke-linecap="round" stroke-miterlimit="10" stroke-width="1.49"/></svg>