<svg xmlns="http://www.w3.org/2000/svg" width="14.45" height="21.02" viewBox="0 0 14.45 21.02"><title>tickets</title><path d="M.67,10.62,13.74,3.86a.4.4,0,0,0,.21-.38V1.37A.86.86,0,0,0,13.1.5H10.38a.86.86,0,0,0-.87.85s0,0,0,0v.42a.86.86,0,0,1-.85.87H5.77A.86.86,0,0,1,4.9,1.8s0,0,0,0V1.37A.86.86,0,0,0,4.05.5H1.37a.86.86,0,0,0-.87.85s0,0,0,0V12.14" transform="translate(0 0)" fill="none" stroke="#00adef" stroke-linecap="round" stroke-miterlimit="10"/><path d="M13.08,21h-2.7a1.23,1.23,0,0,1-1.22-1.21c0-.38-.31-.87-.52-.87H5.77c-.17,0-.52.49-.52.87A1.23,1.23,0,0,1,4,21H1.37A1.23,1.23,0,0,1,.15,19.81V14.33A.33.33,0,0,1,.36,14h0a.35.35,0,0,1,.49.31v5.44a.53.53,0,0,0,.52.52h2.7a.5.5,0,0,0,.52-.48h0c0-.62.49-1.59,1.21-1.59H8.68c.73,0,1.21,1,1.21,1.59a.53.53,0,0,0,.52.52h2.7a.53.53,0,0,0,.52-.52V5.56a.33.33,0,0,1,.21-.31h0a.37.37,0,0,1,.52.31V19.81A1.32,1.32,0,0,1,13.08,21Z" transform="translate(0 0)" fill="#00adef"/><path d="M.54,14.36l13.41-7" transform="translate(0 0)" fill="#fff" stroke="#00adef"/></svg>