<svg xmlns="http://www.w3.org/2000/svg" width="25.79" height="19.62" viewBox="0 0 25.79 19.62"><title>top-up</title><path d="M23.14,3.89H15a.16.16,0,0,0-.13,0l-.52.56c-.09.09,0,.26.13.26h8.65A1.67,1.67,0,0,1,24.79,6.4s0,0,0,0V17a1.67,1.67,0,0,1-1.65,1.69H7.45a1.67,1.67,0,0,1-1.69-1.65s0,0,0,0V14.36a.19.19,0,0,0-.17-.17H5a.19.19,0,0,0-.17.17V17a2.62,2.62,0,0,0,2.61,2.61H23.18A2.62,2.62,0,0,0,25.79,17V6.5A2.68,2.68,0,0,0,23.14,3.89Z" transform="translate(0 0)" fill="#00adef"/><path d="M10.1,6.19,5.8,11.1a.57.57,0,0,1-.91,0L.5,6.19" transform="translate(0 0)" fill="none" stroke="#00adef" stroke-linecap="round" stroke-miterlimit="10"/><line x1="5.28" y1="10.49" x2="5.28" y2="0.5" fill="none" stroke="#00adef" stroke-linecap="round" stroke-miterlimit="10"/><line x1="15.27" y1="8.76" x2="15.27" y2="7.76" fill="none" stroke="#00adef" stroke-linecap="round" stroke-miterlimit="10"/><line x1="15.27" y1="16.31" x2="15.27" y2="15.18" fill="none" stroke="#00adef" stroke-linecap="round" stroke-miterlimit="10"/><path d="M12.88,13.67a6,6,0,0,0,2.87,1.52c1,.13,1.69-.22,1.78-1,.17-1.22-1.74-2-3.08-2.65-1.13-.48-1.65-1.22-1.39-2,.87-1.87,4.26.39,4.26.39" transform="translate(0 0)" fill="none" stroke="#00adef" stroke-linecap="round" stroke-miterlimit="10"/></svg>