<svg id="Layer_1" xmlns="http://www.w3.org/2000/svg" xmlns:xlink="http://www.w3.org/1999/xlink" viewBox="0 0 58.3 44.7"><style>.st0{clip-path:url(#SVGID_2_)}.st1{fill:#fff;fill-opacity:0}.st2{fill:#00adf2}</style><defs><path id="SVGID_1_" d="M0 0h70v56H0z"/></defs><clipPath id="SVGID_2_"><use xlink:href="#SVGID_1_" overflow="visible"/></clipPath><g id="a" class="st0"><path class="st1" d="M0-60h70v56H0z" transform="translate(0 60)"/></g><g><path class="st2" d="M14.7 25.2V6.7l7.3 8.2c.4.4.9.7 1.5.7.5 0 .9-.2 1.3-.5.8-.7.9-2 .2-2.8l-9.8-11c-.2-.3-.4-.5-.6-.6-.7-.6-1.6-.8-2.5-.7-.8.1-1.6.5-2.1 1.2L.5 12.1c-.7.9-.6 2.1.2 2.9.8.7 2.1.6 2.8-.2l7.2-8.2v18.7c0 1.1.9 2 2 2s2-1 2-2.1zM34.1 34.6v2.2c0 .5.4.9.9.9s.9-.4.9-.9v-1.6c.3 0 .7.1 1 .1 2.3 0 3.7-1.1 4-3.2.5-3.5-4.3-5.5-7.4-6.7-1.2-.5-3.1-1.7-2.6-3.5.3-.5.6-.8 1.2-1 2.1-.6 5.7 1.5 6.9 2.3.4.3.9.2 1.2-.2.3-.4.2-.9-.2-1.2-.3-.2-2-1.4-4-2.1v-2c0-.5-.4-.9-.9-.9s-.9.4-.9.9v1.5c-.9-.2-1.8-.2-2.6 0-1 .3-1.8 1-2.3 2v.1c-.7 2.2.6 4.3 3.6 5.6 2.5 1 6.7 2.7 6.4 4.9-.1.5-.3 1.9-3 1.6-2.2-.6-4.3-1.7-5.9-3.2-.4-.3-.9-.3-1.2.1-.3.4-.3.9.1 1.2 1.2 1.3 2.9 2.3 4.8 3.1z"/><path class="st2" d="M51.6 8.7H29.8c-.5 0-.9.4-.9.9s.4.9.9.9h21.7c2.7 0 4.9 2.2 4.9 4.9V38c0 2.7-2.2 4.9-4.9 4.9h-33c-2.7 0-4.9-2.2-4.9-4.9v-6c0-.5-.4-.9-.9-.9s-.9.4-.9.9v6c0 3.7 3 6.7 6.7 6.7h33.1c3.7 0 6.7-3 6.7-6.7V15.4c0-3.7-3.1-6.7-6.7-6.7z"/></g></svg>