<svg id="Layer_1" xmlns="http://www.w3.org/2000/svg" viewBox="0 0 40 40"><style>.st0{fill:#00adef}</style><path class="st0" d="M125.1 163.5c2.4 0 4.4-2 4.4-4.4s-2-4.4-4.4-4.4c-2.4 0-4.4 2-4.4 4.4 0 2.4 2 4.4 4.4 4.4zm0-6.6c1.2 0 2.2 1 2.2 2.2 0 1.2-1 2.2-2.2 2.2-1.2 0-2.2-1-2.2-2.2 0-1.2.9-2.2 2.2-2.2-.1 0 0 0 0 0z" transform="translate(-105 -139.073)"/><path class="st0" d="M106.3 163h3.4c.4 1.4.9 2.8 1.7 4.1l-2.4 2.4c-.5.6-.4 1.4.1 2l3.5 3.5c.5.5 1.3.6 1.9.1l2.4-2.4c1.3.8 2.7 1.3 4.1 1.7v3.3c0 .8.7 1.4 1.6 1.4H127.3c.8.1 1.4-.4 1.6-1.2v-3.5c1.4-.4 2.8-.9 4.1-1.7l2.4 2.4c.5.5 1.3.5 1.9 0l3.7-3.7c.5-.5.5-1.3 0-1.8l-2.5-2.5c.8-1.3 1.3-2.7 1.7-4.1h3.4c.7-.1 1.3-.7 1.3-1.4v-5c0-.7-.6-1.3-1.3-1.4h-3.4c-.4-1.4-.9-2.8-1.7-4.1l2.5-2.5c.3-.5.4-1.1.1-1.6l-3.9-4.1c-.5-.3-1.1-.2-1.6.1l-2.4 2.4c-1.3-.8-2.7-1.3-4.1-1.7v-3.5c-.2-.7-.9-1.2-1.6-1.2h-4.7c-.8-.1-1.5.5-1.6 1.3v3.4c-1.4.4-2.8.9-4.1 1.7l-2.5-2.5c-.5-.3-1.1-.4-1.6-.1l-4 4c-.4.5-.3 1.2.1 1.7l2.4 2.4c-.8 1.3-1.3 2.7-1.7 4.1h-3.4c-.8.1-1.3.8-1.3 1.5v4.8c-.1.9.4 1.6 1.2 1.7zm1-5.6h3.3c.6-.1 1.2-.6 1.3-1.2.3-1.5.9-2.9 1.7-4.2 0-.1.1-.2.1-.2.4-.5.4-1.1.1-1.7l-2.4-2.4 2.4-2.4 2.2 2.2c.5.4 1.3.5 1.8.1.2-.1.2-.1.3-.1 1.2-.7 2.5-1.3 3.9-1.6 0 0 .1 0 .2-.1.6-.1 1.1-.6 1.2-1.2v-3.3h3.4v3.2c.1.7.6 1.3 1.3 1.4.1 0 .2 0 .2.1 1.4.3 2.7.9 3.9 1.6.1 0 .2 0 .3.1.6.4 1.3.4 1.8-.1l2.2-2.2 2.4 2.4-2.3 2.3c-.3.5-.3 1.2 0 1.7.1.1.1.2.1.3.8 1.2 1.3 2.6 1.6 4v.2c.1.6.6 1.1 1.3 1.2h3.3v3.4h-3.3c-.6.1-1.1.6-1.3 1.2v.2c-.3 1.4-.9 2.8-1.7 4 0 .1 0 .1-.1.2-.4.5-.4 1.3 0 1.8l2.3 2.3-2.4 2.4-2.3-2.3c-.5-.4-1.3-.4-1.8 0-.1 0-.1.1-.2.1-1.2.8-2.6 1.3-4 1.7h-.2c-.7.1-1.2.7-1.3 1.4v3.1h-3.4v-3.3c-.1-.6-.6-1.1-1.2-1.2h-.1c-1.4-.3-2.8-.9-4.1-1.7 0 0-.1 0-.2-.1-.5-.4-1.3-.4-1.8 0l-2.3 2.2-2.4-2.3 2.3-2.3c.4-.5.4-1.2 0-1.7 0-.1-.1-.1-.1-.2-.8-1.3-1.4-2.7-1.7-4.2-.3-1.1-1-1.2-1.3-1.2H107l.3-3.6z" transform="translate(-105 -139.073)"/></svg>