<svg id="Layer_2" xmlns="http://www.w3.org/2000/svg" viewBox="0 0 30 29.2"><style>.st0{fill:#fff}</style><path class="st0" d="M26.1 11.5c-.4 0-.8.3-.8.8v15.3h-5.9v-7.9c0-2.5-2-4.5-4.4-4.5-2.5 0-4.5 2-4.5 4.4v8H4.7V12.3v-.1c0-.4-.4-.7-.8-.7h-.1c-.4 0-.7.4-.7.8v16.9H12v-.4c0-.1.1-.2.1-.3s0-.2-.1-.3v-8.4-.1c0-1.6 1.3-2.8 2.9-2.8 1.6 0 2.9 1.3 2.9 2.9v9.4h9V12.3c0-.4-.3-.8-.7-.8zM29.7 9.8L15 0 .3 9.8c-.3.2-.4.7-.2 1 .2.3.7.4 1.1.2l9.4-6.3L15 1.8 28.8 11c.1.1.3.1.5.2.2 0 .5-.1.6-.3.3-.4.1-.9-.2-1.1z"/></svg>