<svg id="Layer_1" xmlns="http://www.w3.org/2000/svg" viewBox="0 0 59.5 45.2"><style>.st0{fill:#00adf2}</style><path class="st0" d="M35.3 35.1v2.2c0 .5.4.9.9.9s.9-.4.9-.9v-1.6c.3 0 .7.1 1 .1 2.3 0 3.7-1.1 4-3.2.5-3.5-4.3-5.5-7.4-6.7-1.2-.5-3.1-1.7-2.6-3.5.3-.5.6-.8 1.2-1 2.1-.6 5.7 1.5 6.9 2.3.4.3.9.2 1.2-.2.3-.4.2-.9-.2-1.2-.3-.2-2-1.4-4.1-2.1v-2c0-.5-.4-.9-.9-.9s-.9.4-.9.9v1.5c-.9-.2-1.8-.2-2.6 0-1 .3-1.8 1-2.3 2v.1c-.7 2.2.6 4.3 3.6 5.6 2.5 1 6.7 2.7 6.4 4.9-.1.5-.3 1.9-3 1.6-2.2-.6-4.3-1.7-5.9-3.2-.4-.3-.9-.3-1.2.1-.3.4-.3.9.1 1.2 1.3 1.3 3 2.3 4.9 3.1z"/><path class="st0" d="M52.8 9.2H31c-.5 0-.9.4-.9.9s.5.9.9.9h21.7c2.7 0 4.9 2.2 4.9 4.9v22.6c0 2.7-2.2 4.9-4.9 4.9h-33c-2.7 0-4.9-2.2-4.9-4.9v-6c0-.5-.4-.9-.9-.9s-.9.4-.9.9v6c0 3.7 3 6.7 6.7 6.7h33.1c3.7 0 6.7-3 6.7-6.7V15.9c0-3.7-3-6.7-6.7-6.7zM15.2 24.4v-9.2h9.2c1.1 0 2-.9 2-2s-.9-2-2-2h-9.2V2c0-1.1-.9-2-2-2s-2 .9-2 2v9.2H2c-1.1 0-2 .9-2 2s.9 2 2 2h9.2v9.2c0 1.1.9 2 2 2s2-.9 2-2z"/></svg>