<svg id="Layer_1" xmlns="http://www.w3.org/2000/svg" viewBox="0 0 31.7 40.1"><style>.st0{fill:#00adf2}</style><path class="st0" d="M8.4 26.9h-22.7c-2.8 0-5.1-2.3-5.1-5.1V-9.7l2.1-2.6s0-.1.1-.1c.8-.9 2.1-1 2.9-.2l1.3 1.1c.1.1.4.1.5 0l1.2-1.2c.9-.7 2-.7 2.8-.1l1.4 1.2c.1.1.4.1.5 0l1.4-1.2c.8-.7 2-.7 2.8 0l1.4 1.2c.1.1.4.1.5 0l1.4-1.2c.8-.7 2-.7 2.8 0l1.4 1.2c.5.4 1.1.9 1.1.9l.3.3v31.8c0 3.4 1.2 3.4 2 3.4.9 0 2.2 0 2.2-4.1V1.3H9c-.5 0-.9-.4-.9-.9s.4-.9.9-.9h3.4v21.3c0 2.6-.4 5.5-3.3 5.8-.2.2-.5.3-.7.3zm-26-36v30.9c0 1.8 1.5 3.3 3.4 3.4H5.5c-.5-.8-.8-2-.8-3.6v-31c-.2-.3-.5-.6-.7-.8l-1.4-1.2c-.1-.1-.4-.1-.5 0L.7-10.2c-.8.7-2 .7-2.8 0l-1.4-1.2c-.1-.1-.4-.1-.5 0l-1.4 1.2c-.8.7-2 .7-2.8 0l-1.4-1.2c-.1-.1-.4-.1-.5 0l-1.2 1.2c-.9.7-2 .7-2.8.1l-1.3-1.1c-.1-.1-.2-.1-.2-.1-.1 0-.2 0-.2.1l-1.8 2.1z" transform="translate(19.379 13.206)"/><path class="st0" d="M1.2-.5H-14c-.5 0-.9-.4-.9-.9s.4-.9.9-.9H1.2c.5 0 .9.4.9.9s-.4.9-.9.9zM1.2 5.9H-14c-.5 0-.9-.4-.9-.9s.4-.9.9-.9H1.2c.5 0 .9.4.9.9s-.4.9-.9.9zM1.2 12.4H-14c-.5 0-.9-.4-.9-.9s.4-.9.9-.9H1.2c.5 0 .9.4.9.9s-.4.9-.9.9z" transform="translate(19.379 13.206)"/></svg>