<svg data-name="Layer 1" xmlns="http://www.w3.org/2000/svg" width="70" height="31.17"><g fill="#fff"><path d="M36.57 17a3.64 3.64 0 0 0-2.39-4 4.31 4.31 0 0 0-1.66-.21H21L19.43 17l-.52 1.45-2.49 7a4.08 4.08 0 0 0-.31 1.45A3.64 3.64 0 0 0 18.5 31l1.45-4.05 1-3.12 1.35-3.64L23.48 17h6.23c1.66 0 2.6 1.35 2 3.12l-1.35 3.64-1.16 3.15-1.56 4.26h4.05l1.56-4.26.52-1.45 2.49-7c.11-.59.21-1 .31-1.46zM13.09 12.68H1.56L0 17h6.65L3 26.91l-1.55 4.26h4.06l1.56-4.26L10.6 17h6.34c.41-2.56-1.25-4.32-3.85-4.32zM57.25 0l-.83 2.18c8.83 0 13.4 7.17 10.18 16h2.18C72.53 8.21 67.33 0 57.25 0z"/><path d="M54.86 6.55c6.44 0 9.87 5.2 7.38 11.64h2.18c2.81-7.59-1.14-13.82-8.83-13.82l-.73 2.18z"/><path d="M54 8.73l-.83 2.18c4.05 0 6.13 3.32 4.68 7.27h2.18c2.11-5.18-.6-9.45-6.03-9.45z"/><path d="M56 17a3.64 3.64 0 0 0-2.38-4 4.05 4.05 0 0 0-1.62-.22H40.32L38.76 17l-.83 2.29-.83 2.29-1.45 3.84a.36.36 0 0 1-.1.21 7.26 7.26 0 0 0-.31 1.25A3.64 3.64 0 0 0 37.61 31a4.05 4.05 0 0 0 1.66.21h11.64l1.56-4.26.83-2.18.1-.21 1.45-3.84h-8.61l-1.56 4.05h4.57l-.83 2.18h-6.23a2 2 0 0 1-2.08-1.25 2.13 2.13 0 0 1 .1-1.77l.79-2.21.52-1.45.31-.83.83-2.29h6.23A2.25 2.25 0 0 1 51 18.39h4.68A4.69 4.69 0 0 0 56 17zM58.71 28.05l.1-.42h2.81l-.21.42h-1.14l-1.14 3.12h-.42l1-3-1-.1zM62.55 27.64v2.91l2.18-2.91h.62l-1.25 3.53h-.52l1-2.91-2.08 2.91h-.42v-2.91l-1 2.91h-.52l1.25-3.43.73-.1z"/></g></svg>