<svg id="Layer_2" xmlns="http://www.w3.org/2000/svg" viewBox="0 0 47.8 37.8"><style>.st0{fill:#00adf2}</style><path class="st0" d="M5.3 32.4C2.4 32.4 0 30 0 27.1V5.9c0-1.4.5-2.7 1.5-3.8 1-1 2.3-1.6 3.7-1.6h31.3c2.9 0 5.3 2.4 5.3 5.3V27c.1 2.9-2.2 5.3-5.1 5.4H5.3zM36.6 2.3s-.1 0 0 0H5.3c-1 0-1.9.4-2.6 1.1-.7.7-1 1.6-1 2.5V27c0 2 1.6 3.6 3.5 3.6h31.4c1.9-.1 3.5-1.7 3.4-3.6V5.9c.1-2-1.5-3.6-3.4-3.6z" transform="translate(0 -.539)"/><path class="st0" d="M21 20.2c-.2 0-.4-.1-.5-.2L5.5 9.1c-.4-.3-.4-.8-.2-1.2.3-.4.8-.5 1.2-.2L21 18.2 35.5 7.7c.4-.3.9-.2 1.2.2.3.4.2.9-.2 1.2L21.5 20c-.1.1-.3.2-.5.2zM6.8 38.3c-.5 0-.9-.4-.9-.9s.4-.9.9-.9h30.3c4.9-.1 8.9-4.1 8.9-9V7.3c0-.5.4-.9.9-.9s.9.4.9.9v20.2c0 5.9-4.8 10.7-10.7 10.7H6.8z" transform="translate(0 -.539)"/></svg>