<svg id="Layer_2" xmlns="http://www.w3.org/2000/svg" viewBox="0 0 37.8 39.8"><style>.st0{fill:#00adf2}</style><path class="st0" d="M2.7 39.8h-.3c-1.5-.2-2.5-1.5-2.3-3l1.1-9.7c.3-2.5 2.2-4.5 4.6-4.9.7-.2 1.4-.3 2.4-.5.8-.2 1.8-.4 3.2-.7 1.3-.3 2.1-.8 2.3-1.3.1-.4-.1-.7-.3-.9l-.1-.1c-1.8-1.8-4.1-4.1-4.1-8.5C9.2 4.4 13.3 0 18.7-.1c5.5 0 9.8 4.3 10 9.7.3 4.8-2.2 7.3-4.1 9.1-.2.2-.4.6-.3 1 .2.6 1 1 2.3 1.3 1.4.3 2.4.5 3.2.7 1 .2 1.7.3 2.5.5 2.4.4 4.3 2.4 4.5 4.9l1 9.7v.3a2.732 2.732 0 0 1-2.7 2.7H2.7zm16-38s-.1 0 0 0c-4.4.1-7.8 3.8-7.8 8.6 0 3.6 1.9 5.5 3.6 7.2l.1.1c.7.7 1 1.7.7 2.6-.2.9-1.1 2-3.6 2.5-1.4.3-2.4.5-3.3.7-.9.2-1.6.3-2.4.5-1.8.3-3 1.7-3.2 3.3l-1 9.7c-.1.5.3 1 .8 1h32.5c.2 0 .5-.1.6-.3s.3-.4.3-.6V37l-1-9.7c-.2-1.7-1.5-3.1-3.1-3.3-.8-.2-1.5-.3-2.4-.5-.8-.2-1.9-.4-3.3-.7-2.5-.6-3.4-1.7-3.6-2.6-.3-.9 0-1.9.7-2.6 1.8-1.8 3.8-3.8 3.6-7.8-.1-4.5-3.8-8-8.2-8z"/></svg>