<svg id="Layer_2" xmlns="http://www.w3.org/2000/svg" viewBox="0 0 40 40"><style>.st0{fill:#fdc427}</style><path class="st0" d="M5.1 14.7h9.6V5.1H5.1v9.6zm1.7-7.9H13V13H6.8V6.8zM5.1 33.8h9.6v-9.6H5.1v9.6zM6.8 26H13v6.2H6.8V26zM25.3 14.7h9.6V5.1h-9.6v9.6zM27 6.8h6.2V13H27V6.8zM6 18.7h7v3.1h1.7V17H6zM17.2 6h1.7v13.9h-1.7zM21.2 12.1h1.7v7.7h-1.7zM29.2 28.1h1.7V32h-1.7z"/><path class="st0" d="M32.8 22.1h-.1v-5.2H31v5.2h-4.1V17h-1.7v5.1h-8V34h1.7V23.8h2.3V29h1.7v-5.2h8.2v1.9h2V34h1.7V24h-2z"/><path class="st0" d="M25.2 26.1h1.7V34h-1.7z"/><path class="st0" d="M34.3 0H5.7C2.5 0 0 2.5 0 5.7v28.7C0 37.5 2.5 40 5.7 40h28.7c3.1 0 5.7-2.5 5.7-5.7V5.7C40 2.5 37.5 0 34.3 0zM38 34.3c0 2-1.6 3.7-3.7 3.7H5.7c-2 0-3.7-1.6-3.7-3.7V5.7C2 3.6 3.6 2 5.7 2h28.7c2 0 3.7 1.6 3.7 3.7v28.6z"/></svg>