<svg id="Layer_1" xmlns="http://www.w3.org/2000/svg" viewBox="0 0 58.3 45.4"><style>.st0{fill:#00adf2}</style><path class="st0" d="M14.4 36.4c-3.7 0-6.7-3-6.7-6.7v-5.9c0-.5.4-.9.9-.9s.9.4.9.9v5.9c0 2.7 2.2 4.9 4.9 4.9h33.2c2.7 0 4.9-2.2 4.9-4.9V7.2c0-2.7-2.2-4.9-4.9-4.9H27.2c-.5 0-.9-.4-.9-.9s.4-.9.9-.9h20.4c3.7 0 6.7 3 6.7 6.7v22.5c0 3.7-3 6.7-6.7 6.7H14.4zM20.9 4.1c-.9-.8-2.1-.7-2.9.2l-7.3 8.3V-7c0-1.1-.9-2-2-2s-2 .9-2 2v19.4L-.6 4.2c-.7-.8-2-.9-2.8-.2s-.9 2-.2 2.8l9.8 11 .6.6c.3.2.6.4 1 .5.3.2.6.3 1 .3.3 0 .6-.1.8-.2.7-.2 1.3-.5 1.8-1.1l9.6-11c.8-.8.7-2.1-.1-2.8z" transform="translate(4 9)"/><path class="st0" d="M30 17.1l-.4-.2c-1.2-.5-3.1-1.7-2.6-3.4.3-.5.6-.8 1.1-1 2.1-.6 5.8 1.5 7.1 2.3.4.3.9.2 1.2-.2.3-.4.2-.9-.2-1.2-.3-.2-2.2-1.4-4.3-2.2V9.4c0-.5-.4-.9-.9-.9s-.9.5-.9.9v1.3c-.9-.1-1.7-.2-2.5.1-1 .3-1.8 1-2.3 2v.1c-.7 2.2.6 4.3 3.5 5.6l.4.2c2.6 1.2 6.3 2.8 6 4.8-.1.5-.3 1.9-3 1.6-2.3-.6-4.3-1.7-6.1-3.2-.4-.3-.9-.3-1.2.1-.3.4-.3.9.1 1.2 1.5 1.4 3.2 2.4 5.1 3.1v2.2c0 .5.4.9.9.9s.9-.4.9-.9v-1.6h.1c.3 0 .7.1 1 .1 2.3 0 3.7-1.1 4-3.2.5-3.3-3.8-5.2-7-6.7z" transform="translate(4 9)"/></svg>