<svg xmlns="http://www.w3.org/2000/svg" width="105" height="88.68"><path d="M98.4 55.94h-31a6.57 6.57 0 0 0-6.54 6.6v19.6a6.57 6.57 0 0 0 6.6 6.53h31.16a6.51 6.51 0 0 0 6.37-6.6V62.48a6.62 6.62 0 0 0-6.59-6.54zm1.79 27.86a2.36 2.36 0 0 1-1.68.73H67.44a2.29 2.29 0 0 1-1.72-.7 2.43 2.43 0 0 1-.72-1.75V62.53a2.43 2.43 0 0 1 2.45-2.44h31a2.44 2.44 0 0 1 2.42 2.45v19.58a2.35 2.35 0 0 1-.68 1.68zM69.59 48v6.58h4.15V48a9.235 9.235 0 1 1 18.47 0v6.58h4.15V48a13.385 13.385 0 0 0-26.77 0z" fill="#fff"/><circle cx="74.24" cy="72.21" r="2.57" fill="#fff"/><circle cx="82.98" cy="72.21" r="2.57" fill="#fff"/><circle cx="91.61" cy="72.21" r="2.57" fill="#fff"/><path d="M41.44 39.62l-.55-.25c-3-1.23-7.68-4-6.37-8.43a4.33 4.33 0 0 1 2.88-2.42c5.07-1.41 14 3.52 17.07 5.54a2.076 2.076 0 0 0 2.31-3.45 48.91 48.91 0 0 0-10.08-5.06v-4.42a2.075 2.075 0 1 0-4.15 0v3.31a14.14 14.14 0 0 0-6.25.09 8.57 8.57 0 0 0-5.58 4.78 2 2 0 0 0-.1.25c-1.77 5.54 1.48 10.64 8.63 13.62l.5.22c6.27 2.83 15.75 7.1 15.06 12a4 4 0 0 1-1.44 2.89c-1.22 1-3.22 1.28-5.81.95a30 30 0 0 1-14.46-7.63 2.076 2.076 0 1 0-2.87 3 34.15 34.15 0 0 0 12.32 7.57v5.32a2.075 2.075 0 1 0 4.15 0v-4.15h.22a18.47 18.47 0 0 0 2.42.17 10.47 10.47 0 0 0 6.56-1.95 8.13 8.13 0 0 0 3-5.64C60 48 49.29 43.15 41.44 39.62z" fill="#fff"/><path d="M54.16 83.23a40.15 40.15 0 1 1 27.63-53.35 2.073 2.073 0 1 0 3.87-1.49 44.32 44.32 0 1 0-30.48 58.86 2.07 2.07 0 1 0-1-4z" fill="#fff"/></svg>