<svg xmlns="http://www.w3.org/2000/svg" width="32" height="44.97"><path d="M17.23 0c.31.34.78.22 1.16.28a12.88 12.88 0 0 1 10.43 12.78v5.54a2.38 2.38 0 0 0 .37 1.31 16 16 0 1 1-29 11.25 15.78 15.78 0 0 1 2.63-11.25 2.15 2.15 0 0 0 .37-1.31 72.48 72.48 0 0 1 .12-7.38A12.74 12.74 0 0 1 13.63.28c.31-.06.72 0 1-.28zM8 19a11.27 11.27 0 0 1 8-2.91 11.38 11.38 0 0 1 8 2.88c0-2.25.06-4.31 0-6.34A7.94 7.94 0 0 0 8.29 11c-.59 2.5-.16 5.13-.29 8zm6.41 13.88v2.28a1.58 1.58 0 1 0 3.16.08v-.05-3.69a2.53 2.53 0 0 1 .81-2.16 3 3 0 0 0-.11-4.34 3.17 3.17 0 0 0-4.48 0 3.05 3.05 0 0 0-.16 4.28 2.48 2.48 0 0 1 .81 2.22c-.06.5-.03.91-.03 1.35z" fill="#fff"/></svg>