<svg xmlns="http://www.w3.org/2000/svg" width="42" height="18.67"><path d="M25.88 6.32c-.41-.16-1.07-.53-1-1.14a.42.42 0 0 1 .3-.18 4.84 4.84 0 0 1 2.76 1 .61.61 0 0 0 .68-1 9.42 9.42 0 0 0-1.56-.83v-.63a.61.61 0 1 0-1.21 0v.25a2.49 2.49 0 0 0-1 0 1.64 1.64 0 0 0-1.08.88v.12a2.27 2.27 0 0 0 1.67 2.63c2.09.87 2.49 1.47 2.46 1.79s-.06.58-.87.5a5.53 5.53 0 0 1-2.37-1.28.61.61 0 1 0-.82.9 6.64 6.64 0 0 0 2 1.26v.82a.61.61 0 1 0 1.21 0v-.49h.11a1.74 1.74 0 0 0 1.91-1.58c.17-1.62-2.07-2.57-3.19-3.02z" fill="#06374b"/><path d="M38.31 13.29V1.72A1.77 1.77 0 0 0 36.59 0h-20a1.71 1.71 0 0 0-1.72 1.69v11.57A1.71 1.71 0 0 0 16.52 15h20.07a1.71 1.71 0 0 0 1.72-1.71zm-21.86 0V1.72a.1.1 0 0 1 .1-.1h20a.1.1 0 0 1 .1.1v11.54a.1.1 0 0 1-.1.1h-20a.1.1 0 0 1-.1-.1z" fill="#06374b"/><path d="M39.51 3.69a.76.76 0 0 0-.75.77.79.79 0 0 0 .77.75 1 1 0 0 1 1 1v10a1 1 0 0 1-1 1H21.09a1 1 0 0 1-.95-1h-1.52a2.46 2.46 0 0 0 2.46 2.44h18.48A2.47 2.47 0 0 0 42 16.19V6.14a2.49 2.49 0 0 0-2.49-2.45zM12.09 1.87H8.86a.86.86 0 1 0 0 1.72h3.24a.86.86 0 0 0 0-1.72zM12.09 6.43H4.81a.86.86 0 1 0 0 1.72h7.29a.86.86 0 0 0 0-1.72zM12.09 10.88H.86a.86.86 0 0 0 0 1.72h11.23a.86.86 0 0 0 0-1.72z" fill="#06374b"/></svg>