<svg xmlns="http://www.w3.org/2000/svg" width="24.21" height="34"><path d="M22.08 15.06a1.8 1.8 0 0 1-.28-1V9.88A9.75 9.75 0 0 0 13.91.21c-.28 0-.64 0-.88-.21H11c-.19.24-.5.16-.73.21a9.63 9.63 0 0 0-7.8 8.27 54.81 54.81 0 0 0-.09 5.58 1.63 1.63 0 0 1-.28 1 11.93 11.93 0 0 0-2 8.51 12.1 12.1 0 1 0 22-8.51zM16.4 25.83a2.42 2.42 0 0 1-.92 1.69 2.9 2.9 0 0 1-1.79.54 4.74 4.74 0 0 1-.51 0v.87a.775.775 0 1 1-1.55 0v-1.34a9.77 9.77 0 0 1-3.19-2 .771.771 0 0 1 1.05-1.13 8.28 8.28 0 0 0 3.77 2 1.78 1.78 0 0 0 1.28-.2.89.89 0 0 0 .32-.65c.15-1.18-2.42-2.3-3.95-3-2-.84-2.88-2.29-2.36-3.88a2.49 2.49 0 0 1 1.62-1.46 3.69 3.69 0 0 1 1.46-.07v-.63a.775.775 0 0 1 1.55 0v1A13.44 13.44 0 0 1 15.81 19a.77.77 0 0 1-.81 1.26c-1.1-.72-3.25-1.75-4.35-1.43a.9.9 0 0 0-.61.54c-.22.7.28 1.37 1.54 1.9 2.01.88 5.11 2.23 4.82 4.56zm1.71-11.5a8.6 8.6 0 0 0-6-2.17 8.53 8.53 0 0 0-6 2.2c.09-2.15-.24-4.14.21-6.05a6 6 0 0 1 11.79 1.22c.05 1.53 0 3.09 0 4.8z" fill="#09374a"/></svg>