<svg xmlns="http://www.w3.org/2000/svg" width="14.18" height="20.96" viewBox="0 0 14.18 20.96"><title>bus-pass</title><path d="M12.54.7a.94.94,0,0,1,.94.93h0V19.28a.94.94,0,0,1-.93.94H1.64a.89.89,0,0,1-.94-.83s0,0,0-.07V1.64A.94.94,0,0,1,1.64.7H3.77v.59A1.09,1.09,0,0,0,4.86,2.37H9.29a1.09,1.09,0,0,0,1.08-1.08V.7h2.16m0-.7H10.09a.39.39,0,0,0-.38.38v.91a.39.39,0,0,1-.38.38H4.86a.39.39,0,0,1-.38-.38V.38A.39.39,0,0,0,4.09,0H1.64A1.64,1.64,0,0,0,0,1.64H0V19.28A1.65,1.65,0,0,0,1.62,21H12.54a1.64,1.64,0,0,0,1.64-1.64h0V1.64A1.64,1.64,0,0,0,12.55,0Z" transform="translate(0 0)" fill="#00adef"/><path d="M9.88,5.69a.74.74,0,0,1,.73.73v10h-7v-10a.74.74,0,0,1,.73-.73H9.88m0-.52H4.4A1.25,1.25,0,0,0,3.14,6.42h0V17h8V6.43A1.25,1.25,0,0,0,9.9,5.17h0Z" transform="translate(0 0)" fill="#00adef"/><path d="M1,6.67H.38A.35.35,0,0,0,0,7a.38.38,0,0,0,.35.35H1A.35.35,0,0,0,1.36,7,.38.38,0,0,0,1,6.67Z" transform="translate(0 0)" fill="#00adef"/><path d="M2.34,6.67A.35.35,0,0,0,2,7a.38.38,0,0,0,.35.35h.8v-.7Z" transform="translate(0 0)" fill="#00adef"/><path d="M11.7,6.6h-.56v.7h.59A.35.35,0,0,0,12.08,7,.38.38,0,0,0,11.7,6.6Z" transform="translate(0 0)" fill="#00adef"/><path d="M13.69,6.6h-.63a.35.35,0,0,0-.35.35.38.38,0,0,0,.35.35h.63A.35.35,0,0,0,14,6.95.38.38,0,0,0,13.69,6.6Z" transform="translate(0 0)" fill="#00adef"/><path d="M3.25,8.28H11" transform="translate(0 0)" fill="none" stroke="#00adef" stroke-width="0.7"/><line x1="4.96" y1="10.13" x2="9.33" y2="10.13" fill="none" stroke="#00adef" stroke-linecap="round" stroke-miterlimit="10"/><line x1="3.53" y1="14.42" x2="10.72" y2="14.42" fill="none" stroke="#00adef" stroke-miterlimit="10" stroke-width="0.7"/><path d="M5.24,17.71h-.7a.16.16,0,0,1-.18-.17v-.7a.16.16,0,0,1,.15-.17h.72a.16.16,0,0,1,.18.17v.7A.22.22,0,0,1,5.24,17.71Z" transform="translate(0 0)" fill="#00adef"/><circle cx="4.86" cy="15.58" r="0.42" fill="#00adef"/><path d="M9.78,17.71h-.7a.16.16,0,0,1-.17-.17v-.7a.16.16,0,0,1,.15-.17h.72a.16.16,0,0,1,.17.17v.7A.19.19,0,0,1,9.78,17.71Z" transform="translate(0 0)" fill="#00adef"/><circle cx="9.43" cy="15.58" r="0.42" fill="#00adef"/></svg>