<svg xmlns="http://www.w3.org/2000/svg" width="14.21" height="22.38" viewBox="0 0 14.21 22.38"><title>coupons</title><path d="M4,9.88v.67H5.67a0,0,0,0,1,0,0h0v1.79a0,0,0,0,1,0,0H4a0,0,0,0,1,0,0h0V10.59a0,0,0,0,1,0,0H4V9.88m0,0a.67.67,0,0,0-.67.66h0v1.79a.67.67,0,0,0,.66.67H5.67a.67.67,0,0,0,.67-.66h0V10.55a.67.67,0,0,0-.66-.67H4Z" transform="translate(0 0)" fill="#00adef"/><path d="M8.46,15.63v.67h1.75a0,0,0,0,1,0,0v1.79a0,0,0,0,1,0,0H8.46a0,0,0,0,1,0,0V16.34a0,0,0,0,1,0,0v-.67m0,0a.67.67,0,0,0-.67.66h0v1.79a.67.67,0,0,0,.66.67h1.76a.67.67,0,0,0,.68-.66h0V16.3a.67.67,0,0,0-.66-.67H8.46Z" transform="translate(0 0)" fill="#00adef"/><path d="M10.82,9.88l-1.57,0a1.09,1.09,0,0,0-1,.71l-2.05,7a1,1,0,0,1-1,.71H3.69" transform="translate(0 0)" fill="none" stroke="#00adef" stroke-linecap="round" stroke-miterlimit="10"/><circle cx="7.09" cy="4.03" r="0.75" transform="translate(-0.82 6.01) rotate(-43.66)" fill="none" stroke="#00adef" stroke-miterlimit="10" stroke-width="0.5"/><path d="M7.09.75A1.21,1.21,0,0,1,8,1.16l5,5.11a1.24,1.24,0,0,1,.37.93V20.33a1.34,1.34,0,0,1-1.33,1.34h-10A1.34,1.34,0,0,1,.75,20.34h0V7.2a1.47,1.47,0,0,1,.37-.93l5-5.11A1.34,1.34,0,0,1,7.09.75m0-.75A2.16,2.16,0,0,0,5.59.64L.6,5.74A2.06,2.06,0,0,0,0,7.2V20.29a2.09,2.09,0,0,0,2.08,2.09h10a2.09,2.09,0,0,0,2.09-2.08h0V7.2a2.2,2.2,0,0,0-.6-1.45L8.58.64A2.09,2.09,0,0,0,7.09,0Z" transform="translate(0 0)" fill="#00adef"/></svg>