<svg xmlns="http://www.w3.org/2000/svg" width="22.25" height="22.69" viewBox="0 0 22.25 22.69"><title>exchange</title><line x1="4.89" y1="13.36" x2="4.89" y2="12.72" fill="none" stroke="#00adef" stroke-linecap="round" stroke-miterlimit="10"/><line x1="4.89" y1="18.3" x2="4.89" y2="17.55" fill="none" stroke="#00adef" stroke-linecap="round" stroke-miterlimit="10"/><path d="M3.31,16.56a4.06,4.06,0,0,0,1.86,1c.63.08,1.11-.12,1.15-.67.12-.79-1.15-1.35-2-1.7s-1.07-.79-.91-1.35c.55-1.23,2.77.28,2.77.28" transform="translate(0 0)" fill="none" stroke="#00adef" stroke-linecap="round" stroke-miterlimit="10"/><path d="M11.54,5.6l2.65,3.13a.19.19,0,0,0,.27,0h0l2.41-3.24" transform="translate(0 0)" fill="none" stroke="#00adef" stroke-linecap="round" stroke-miterlimit="10"/><line x1="14.39" y1="8.92" x2="14.39" y2="13.91" fill="none" stroke="#00adef" stroke-linecap="round" stroke-miterlimit="10"/><line x1="12.05" y1="10.43" x2="16.41" y2="10.43" fill="none" stroke="#00adef" stroke-linecap="round" stroke-miterlimit="10"/><line x1="12.05" y1="12.25" x2="16.41" y2="12.25" fill="none" stroke="#00adef" stroke-linecap="round" stroke-miterlimit="10"/><path d="M1.53,7.5C3.63,1.68,11-2,10.23,1.8" transform="translate(0 0)" fill="none" stroke="#00adef" stroke-linecap="round" stroke-miterlimit="10" stroke-width="0.5"/><path d="M2.48,7.14,1.06,9.91.9,6.79Z" transform="translate(0 0)" fill="#00adef"/><path d="M15.93,19.37C13,22.69,7,23.6,7.7,20.67" transform="translate(0 0)" fill="none" stroke="#00adef" stroke-linecap="round" stroke-miterlimit="10" stroke-width="0.5"/><path d="M15.06,19.33l2-1.74-.87,2.53Z" transform="translate(0 0)" fill="#00adef"/><path d="M4.81,10.62" transform="translate(0 0)" fill="#00adef"/><path d="M14.31,1.56" transform="translate(0 0)" fill="#00adef"/><path d="M15.1,1.6a5.3,5.3,0,0,0-.79,0v.79a4.3,4.3,0,0,1,.71,0,7.08,7.08,0,0,1-.71,14.13,4.3,4.3,0,0,1-.71,0,7.09,7.09,0,0,1-4-1.74,5.55,5.55,0,0,1-2.1-3.28,7.71,7.71,0,0,1-.27-2.69,7.05,7.05,0,0,1,7-6.37V1.6h0A7.89,7.89,0,0,0,6.43,8.69,7.41,7.41,0,0,0,6.55,11a4.51,4.51,0,0,0-1.31-.32c-.16,0-.32,0-.47,0v.59a1.62,1.62,0,0,1,.43,0,3.52,3.52,0,0,1,1.54.48,7.93,7.93,0,0,0,2.33,3.64V16a4.29,4.29,0,0,1-4.27,3.88,1.62,1.62,0,0,1-.43,0,4.5,4.5,0,0,1-2.85-1.58,4.29,4.29,0,0,1,3.32-7v-.59h0A4.82,4.82,0,0,0,0,15a4.88,4.88,0,0,0,4.35,5.34c.16,0,.32,0,.47,0A4.89,4.89,0,0,0,9.72,16v-.2a7.72,7.72,0,0,0,3.88,1.46,5.3,5.3,0,0,0,.79,0,7.89,7.89,0,0,0,7.83-7.08A8,8,0,0,0,15.1,1.6Z" transform="translate(0 0)" fill="#00adef"/></svg>