<svg xmlns="http://www.w3.org/2000/svg" width="21.76" height="14.87" viewBox="0 0 21.76 14.87"><title>expenses-claim</title><path d="M14.59.07A7.33,7.33,0,0,0,8.16,3.56a.22.22,0,0,0,0,.25L8.45,4a.22.22,0,0,0,.29,0A6.64,6.64,0,1,1,9,11.39a.22.22,0,0,0-.29,0l-.25.15a.22.22,0,0,0,0,.29A7.37,7.37,0,1,0,14.59.07Z" transform="translate(0 0)" fill="#00adef"/><path d="M4.82,4,8.56,7.25a.41.41,0,0,1,0,.69l-3.74,3.3" transform="translate(0 0)" fill="none" stroke="#00adef" stroke-linecap="round" stroke-linejoin="round"/><line x1="8.09" y1="7.65" x2="0.5" y2="7.65" fill="none" stroke="#00adef" stroke-linecap="round" stroke-linejoin="round"/><line x1="14.48" y1="4.28" x2="14.48" y2="3.3" fill="none" stroke="#00adef" stroke-linecap="round" stroke-miterlimit="10"/><line x1="14.48" y1="11.5" x2="14.48" y2="10.41" fill="none" stroke="#00adef" stroke-linecap="round" stroke-miterlimit="10"/><path d="M12.15,8.92a5.66,5.66,0,0,0,2.76,1.45c.94.15,1.6-.18,1.71-1,.15-1.16-1.67-2-2.94-2.51-1.09-.47-1.56-1.16-1.31-2,.8-1.78,4.07.4,4.07.4" transform="translate(0 0)" fill="none" stroke="#00adef" stroke-linecap="round" stroke-miterlimit="10"/><path d="M.5,3.8V2.86A2.36,2.36,0,0,1,2.85.5h.92" transform="translate(0 0)" fill="none" stroke="#00adef" stroke-linecap="round" stroke-linejoin="round"/><path d="M3.8,14.37H2.86A2.35,2.35,0,0,1,.5,12h0v-.33" transform="translate(0 0)" fill="none" stroke="#00adef" stroke-linecap="round" stroke-linejoin="round"/></svg>