<svg xmlns="http://www.w3.org/2000/svg" width="22.18" height="22.19" viewBox="0 0 22.18 22.19"><title>face-to-face</title><path d="M11.32,15.55C2,21.47-.79,18.2,1.05,16.9" transform="translate(-0.02 0)" fill="none" stroke="#00adef" stroke-linecap="round" stroke-miterlimit="10"/><path d="M10.15,15.06l3.72-1.26-2.56,3Z" transform="translate(-0.02 0)" fill="#00adef"/><path d="M15.71.81a2.76,2.76,0,0,1,.58,0,5.7,5.7,0,0,1,3.85,2.06A5.41,5.41,0,0,1,21.4,7.08a5.58,5.58,0,0,1-3.27,4.57l-.27.13-.31.09a5.11,5.11,0,0,1-1.84.31,2.18,2.18,0,0,1-.54,0A5.82,5.82,0,0,1,12,10.8l-.22-.18-.23-.22a6,6,0,0,1-1.39-2.51l0-.27,0,0,0-.54a4.68,4.68,0,0,1,0-1.12l0-.31,0-.27A5.63,5.63,0,0,1,15.71.81m0-.81A6.52,6.52,0,0,0,9.34,5.2a8.5,8.5,0,0,0-2.51.58A9.76,9.76,0,0,0,5,6.77l0,0a8.55,8.55,0,0,0-2.87,10,1.34,1.34,0,0,0,.18.36.37.37,0,0,0,.27.18h.14a1.24,1.24,0,0,0,.4,0,4.4,4.4,0,0,1-.36-.81,6.75,6.75,0,0,1-.54-2.6L2.3,14a2.94,2.94,0,0,0,1.43.31h0a9.35,9.35,0,0,0,2.11-.27,14.76,14.76,0,0,0,.76,1.75.3.3,0,0,0,.32.18.16.16,0,0,0,.13,0h0a.31.31,0,0,0,.15-.41l0,0c-.27-.54-.49-1.08-.72-1.61a15.75,15.75,0,0,0,3.27-1.3,14.71,14.71,0,0,0,1.7-1.21A6.34,6.34,0,0,0,15,12.91c.22,0,.4,0,.63,0a6.71,6.71,0,0,0,2.11-.36,8.17,8.17,0,0,1-.54,4.12,8,8,0,0,1-2.11,2.87,15.82,15.82,0,0,0-.36-4.48s-.09,0-.09.09a1.05,1.05,0,0,0-.36.94,17.53,17.53,0,0,1,.13,3.81v.13a7.8,7.8,0,0,1-1.48.81l-.22.09a.3.3,0,0,0-.18-.22,11.73,11.73,0,0,1-2.42-1.52A1.07,1.07,0,0,0,9.52,19a1.59,1.59,0,0,0-.45.09l0,0a11.58,11.58,0,0,0,3,2.11,7.47,7.47,0,0,1-2,.27A7.7,7.7,0,0,1,6,20.35a1.27,1.27,0,0,0-.58-.18H5.22a4,4,0,0,1-.76-.09,8.49,8.49,0,0,0,5.6,2.11,8.75,8.75,0,0,0,3.18-.63,8.55,8.55,0,0,0,5.24-6.63,6.67,6.67,0,0,0,0-2.11,1.33,1.33,0,0,0-.09-.45A6.48,6.48,0,0,0,16.34,0,2.76,2.76,0,0,0,15.71,0ZM9.25,7.13a12,12,0,0,0-1.52-.94,8.35,8.35,0,0,1,1.52-.31,5.87,5.87,0,0,0,0,1.26Zm-3,6.14a18,18,0,0,1-.72-6,6.4,6.4,0,0,1,1.35-.72l0,0A12.75,12.75,0,0,1,9.44,8.11,6.45,6.45,0,0,0,11,11,12.53,12.53,0,0,1,9.43,12.1,20.81,20.81,0,0,1,6.3,13.27Zm-2.56.4a1.92,1.92,0,0,1-1.08-.22.56.56,0,0,1-.36-.58.17.17,0,0,0,0-.13,8.08,8.08,0,0,1,2.6-5,18,18,0,0,0,.76,5.65,7.61,7.61,0,0,1-1.88.27Z" transform="translate(-0.02 0)" fill="#00adef"/><line x1="15.78" y1="3.81" x2="15.78" y2="2.96" fill="none" stroke="#00adef" stroke-linecap="round" stroke-miterlimit="10"/><line x1="15.78" y1="10" x2="15.78" y2="9.06" fill="none" stroke="#00adef" stroke-linecap="round" stroke-miterlimit="10"/><path d="M13.78,7.8a5.3,5.3,0,0,0,2.38,1.26c.81.13,1.39-.18,1.48-.85.13-1-1.43-1.7-2.51-2.15s-1.34-1-1.12-1.66c.72-1.52,3.5.31,3.5.31" transform="translate(-0.02 0)" fill="none" stroke="#00adef" stroke-linecap="round" stroke-miterlimit="10"/></svg>