<svg xmlns="http://www.w3.org/2000/svg" width="22.43" height="21.15" viewBox="0 0 22.43 21.15"><title>friends</title><path d="M20.57,8.19H1.79A1.3,1.3,0,0,0,.5,9.48V10a1.3,1.3,0,0,0,1.29,1.29H3.15a1.19,1.19,0,0,1,1.18,1.18V19a2.23,2.23,0,0,0,2.22,2.25H9.15a.74.74,0,0,0,.74-.74v-8c0-.92.4-1.1,1.33-1.1h0c.92,0,1.33.18,1.33,1.1v8a.74.74,0,0,0,.74.74h2.58A2.23,2.23,0,0,0,18.1,19s0,0,0,0V12.42a1.19,1.19,0,0,1,1.18-1.18h1.36A1.3,1.3,0,0,0,21.93,10V9.48A1.37,1.37,0,0,0,20.57,8.19Z" transform="translate(0 -0.58)" fill="none" stroke="#00adef" stroke-miterlimit="10"/><circle cx="6.69" cy="3.66" r="2.58" transform="translate(-0.62 0.91) rotate(-12.16)" fill="none" stroke="#00adef" stroke-miterlimit="10"/><circle cx="15.93" cy="3.66" r="2.58" transform="translate(-0.41 2.86) rotate(-12.16)" fill="none" stroke="#00adef" stroke-miterlimit="10"/></svg>