<svg xmlns="http://www.w3.org/2000/svg" width="20.91" height="20.29" viewBox="0 0 20.91 20.29"><title>home</title><path d="M7.89,20.29H2.18V8.54A.5.5,0,0,1,2.64,8h.07a.5.5,0,0,1,.53.53V19.22H7.89a.53.53,0,0,1,0,1.07Z" transform="translate(0)" fill="#00adef"/><path d="M8.1,19.76" transform="translate(0)" fill="#00adef" stroke="#000" stroke-linecap="round" stroke-miterlimit="10" stroke-width="2"/><path d="M18.73,20.29H13a.53.53,0,1,1,0-1.07h4.65V8.54a.53.53,0,0,1,1.07,0V20.29Z" transform="translate(0)" fill="#00adef"/><path d="M13.5,20.29H12.43V13.73a2,2,0,0,0-2-2h0a2,2,0,0,0-2,1.94v6.66H7.3V13.67a3.1,3.1,0,0,1,6.2.06Z" transform="translate(0)" fill="#00adef"/><path d="M20.39,7.8a.76.76,0,0,1-.32-.11L10.45,1.23.84,7.69a.53.53,0,0,1-.73-.13l0,0A.5.5,0,0,1,.2,6.84L10.45,0l10.2,6.84a.53.53,0,0,1,.18.72l0,0A.49.49,0,0,1,20.39,7.8Z" transform="translate(0)" fill="#00adef"/></svg>