<svg xmlns="http://www.w3.org/2000/svg" width="28" height="14.22" viewBox="0 0 28 14.22"><title>make-money</title><path d="M6.68.39H8l.31,1.18h1.5c.1-.39.21-.79.3-1.18h1.28c-.1.39-.21.79-.3,1.18.65,0,1.31,0,2,0,0,.44,0,.88,0,1.33H11A.54.54,0,0,0,11,2.57a.36.36,0,0,0-.27-.07H9.54a.29.29,0,0,0-.22.06c-.09.09-.07.22-.07.34H8.8a.5.5,0,0,0-.08-.33.28.28,0,0,0-.21-.06H7.27a.24.24,0,0,0-.21.09.58.58,0,0,0-.05.3H5.12a3.41,3.41,0,0,0,0-.48c0-.28,0-.56,0-.84H7C6.89,1.18,6.79.78,6.68.39Z" transform="translate(0 -0.39)" fill="#2cabe2"/><path d="M16.6.9a.67.67,0,0,1,.54-.27h1.46a.67.67,0,0,1,.56.28l1,1.37h.7c0,.44,0,.88,0,1.32h-1a.66.66,0,0,1-.54-.28c-.33-.45-.67-.9-1-1.36-.22,0-.44,0-.66,0-.06,0-.15,0-.19,0l-1,1.33a.65.65,0,0,1-.52.27H14.89c0-.44,0-.88,0-1.32h.69C15.93,1.83,16.26,1.36,16.6.9Z" transform="translate(0 -0.39)" fill="#2cabe2"/><path d="M22.33.68H23.8c.16.37.31.73.47,1.1h1.58c-.16-.37-.32-.73-.47-1.1h1.46c.15.37.32.73.47,1.1H28c0,.45,0,.9,0,1.35H24.85c.1.24.21.48.31.72H28q0,.68,0,1.35H25.74l.34.8H28c0,.45,0,.9,0,1.35H25.64a.67.67,0,0,1-.52-.24,1.42,1.42,0,0,1-.17-.34l-.48-1.11c-.47.35-.94.71-1.4,1.06a1.44,1.44,0,0,1-.4.25.8.8,0,0,1-.26,0H21.09q0-.67,0-1.35h1.16l1.68-1.28c-.17-.42-.36-.83-.53-1.25h-2.3q0-.68,0-1.35h1.72Z" transform="translate(0 -0.39)" fill="#2cabe2"/><path d="M14.89,4h6q0,.66,0,1.33h-2.3c0,.53,0,1.07,0,1.6.17,0,.35,0,.52,0s.42,0,.63,0h1.12s0,.08,0,.12c0,.41,0,.81,0,1.22h-2.3q0,2.29,0,4.59a2.37,2.37,0,0,0,0,.3h2.28c0,.44,0,.89,0,1.34h-6c0-.45,0-.89,0-1.34h2.35q0-2.45,0-4.9H14.89c0-.45,0-.89,0-1.34.62,0,1.23,0,1.85,0,.17,0,.33,0,.5,0,0-.54,0-1.07,0-1.61H14.89Q14.89,4.66,14.89,4Z" transform="translate(0 -0.39)" fill="#2cabe2"/><path d="M13,9.06Q13,8,13,7a1.32,1.32,0,0,0,0-.38.66.66,0,0,0-.61-.47H10.81c0-.37,0-.74,0-1.12h.87c0,.22,0,.44,0,.66h.89a3,3,0,0,0,.44,0c0-.44,0-.87,0-1.31a.67.67,0,0,0-.38-.6.9.9,0,0,0-.43-.07H10.8c0-.32,0-.64,0-1-.44,0-.89,0-1.34,0,0,.32,0,.64,0,1H8.57c0-.32,0-.64,0-1-.44,0-.89,0-1.34,0,0,.32,0,.64,0,1H5.76a.66.66,0,0,0-.65.64q0,1.25,0,2.49a.65.65,0,0,0,.62.64H7.24c0,.38,0,.76,0,1.14h-.8c0-.19,0-.38,0-.57H5.11q0,.62,0,1.25a.65.65,0,0,0,.42.61,1.12,1.12,0,0,0,.43,0H7.24q0,.45,0,.91H8.57q0-.45,0-.91c.3,0,.6,0,.89,0,0,.3,0,.6,0,.9h1.34q0-.45,0-.91h1.56a.67.67,0,0,0,.6-.43A1.23,1.23,0,0,0,13,9.06ZM7.24,6.14c-.27,0-.54,0-.8,0,0-.37,0-.74,0-1.11h.8Q7.24,5.59,7.24,6.14ZM8.57,5h.89c0,.37,0,.74,0,1.12H8.58C8.57,5.77,8.57,5.4,8.57,5Zm.89,3.58H8.57c0-.38,0-.76,0-1.14h.89C9.47,7.85,9.47,8.23,9.47,8.61Zm2.21,0h-.87c0-.38,0-.76,0-1.14h.87C11.68,7.85,11.67,8.23,11.68,8.61Z" transform="translate(0 -0.39)" fill="#2cabe2"/><path d="M22.33,7.82H23.8c.16.37.32.74.47,1.1h1.58c-.15-.37-.32-.73-.47-1.1h1.46c.15.37.31.74.48,1.1H28c0,.45,0,.9,0,1.35H24.85c.1.24.21.47.3.71.23,0,.46,0,.69,0,.72,0,1.44,0,2.15,0,0,.45,0,.9,0,1.34H25.74c.12.27.23.54.35.8H28c0,.45,0,.9,0,1.35H25.65a.68.68,0,0,1-.62-.4l-.56-1.29c-.55.4-1.08.82-1.63,1.23a1,1,0,0,1-.63.12H21.09c0-.45,0-.9,0-1.35.38,0,.77,0,1.15,0a.29.29,0,0,0,.09,0l1.6-1.22-.54-1.25H21.09c0-.45,0-.9,0-1.35h1.72Z" transform="translate(0 -0.39)" fill="#2cabe2"/><path d="M4.66,1.47A.67.67,0,0,0,4.28.86,1.39,1.39,0,0,0,3.73.78C2.83.81,1.94.77,1,.8a.66.66,0,0,0-.57.64q0,4.61,0,9.22a.66.66,0,0,0,.41.61,1.39,1.39,0,0,0,.52,0H4a.67.67,0,0,0,.64-.66Q4.66,6.06,4.66,1.47ZM1.8,5.18H3.32c0,.58,0,1.17,0,1.75H1.8Q1.8,6.05,1.8,5.18Zm0-3.06H3.32c0,.57,0,1.15,0,1.72-.32,0-.65,0-1,0H1.8C1.8,3.27,1.8,2.69,1.8,2.12ZM3.33,10H1.8q0-.86,0-1.72H3.32C3.33,8.84,3.33,9.42,3.33,10Z" transform="translate(0 -0.39)" fill="#2cabe2"/><path d="M15.12,9h1.33q0,.7,0,1.41a2.2,2.2,0,0,0,0,.48.22.22,0,0,0,.12.17.83.83,0,0,0,.2,0c0,.44,0,.89,0,1.33A1.66,1.66,0,0,1,15.59,12a1.85,1.85,0,0,1-.47-1.27C15.11,10.13,15.12,9.58,15.12,9Z" transform="translate(0 -0.39)" fill="#2cabe2"/><path d="M19.45,9c.44,0,.89,0,1.34,0,0,.49,0,1,0,1.46a2.36,2.36,0,0,1-.26,1.19,1.49,1.49,0,0,1-1,.7,2.22,2.22,0,0,1-.45,0q0-.66,0-1.33c.1,0,.22,0,.28-.09a.89.89,0,0,0,.07-.44C19.45,10.06,19.46,9.54,19.45,9Z" transform="translate(0 -0.39)" fill="#2cabe2"/><path d="M6,10.5H7a1.66,1.66,0,0,0,0,.42.29.29,0,0,0,.18.16c-.16.72-.33,1.44-.49,2.16a.8.8,0,0,1-.14.34.68.68,0,0,1-.54.27H5.13c0,.21,0,.43,0,.64H4.07A.66.66,0,0,1,3.45,14L3,11.87a.21.21,0,0,1,.13,0H4.32c.11.43.2.87.31,1.31H5c0-.22,0-.43,0-.65h.5C5.68,11.84,5.84,11.17,6,10.5Z" transform="translate(0 -0.39)" fill="#2cabe2"/><path d="M11,10.5h1c.15.67.31,1.34.45,2H13c0,.44,0,.89,0,1.33H12a.67.67,0,0,1-.62-.52c-.17-.75-.34-1.5-.51-2.25.07,0,.15-.07.17-.15A2.68,2.68,0,0,0,11,10.5Z" transform="translate(0 -0.39)" fill="#2cabe2"/><path d="M7.25,11.07H8.57q0,1.77,0,3.54H7.24c0-.85,0-1.69,0-2.54C7.25,11.73,7.22,11.4,7.25,11.07Z" transform="translate(0 -0.39)" fill="#2cabe2"/><path d="M9.47,11.07h1.32c0,1.18,0,2.36,0,3.54H9.47Q9.47,12.84,9.47,11.07Z" transform="translate(0 -0.39)" fill="#2cabe2"/><path d="M.8,11.85H2.15c-.11.59-.27,1.17-.39,1.76,0,.16-.06.32-.12.47a.65.65,0,0,1-.58.41H0c0-.44,0-.88,0-1.33H.5C.6,12.72.7,12.29.8,11.85Z" transform="translate(0 -0.39)" fill="#2cabe2"/></svg>