<svg xmlns="http://www.w3.org/2000/svg" width="20.89" height="21.06" viewBox="0 0 20.89 21.06"><title>membership-cards</title><path d="M9,8.58a.32.32,0,0,1-.28-.14A.34.34,0,0,1,8.78,8h0l7.33-5.7a.34.34,0,0,1,.48.06h0a.34.34,0,0,1-.05.47h0L9.21,8.51A.49.49,0,0,1,9,8.58Z" transform="translate(0 0)" fill="#00adef" stroke="#00adef" stroke-width="0.2"/><path d="M20.44,7.26,15.71.8A1.68,1.68,0,0,0,14.39.1a1.46,1.46,0,0,0-1,.35L4.34,7.5a1.61,1.61,0,0,0-.24.24.28.28,0,0,0,.21.46h.31l.14-.14L13.83,1a.85.85,0,0,1,.56-.2.87.87,0,0,1,.76.42l4.73,6.47a1.19,1.19,0,0,1-.21,1.6l-3,2.29a.25.25,0,0,0-.1.21V12a.27.27,0,0,0,.45.21l3.06-2.4A1.85,1.85,0,0,0,20.44,7.26Z" transform="translate(0 0)" fill="#00adef" stroke="#00adef" stroke-width="0.2"/><path d="M13.62,9.87A1.1,1.1,0,0,1,14.73,11s0,0,0,0v8.17a1.1,1.1,0,0,1-1.09,1.11H1.91A1.1,1.1,0,0,1,.8,19.17s0,0,0,0V11A1.1,1.1,0,0,1,1.89,9.87H13.62m0-.7H1.91A1.8,1.8,0,0,0,.1,11s0,0,0,0v8.17A1.8,1.8,0,0,0,1.89,21H13.62a1.8,1.8,0,0,0,1.81-1.79s0,0,0,0V11a1.8,1.8,0,0,0-1.79-1.81Z" transform="translate(0 0)" fill="#00adef" stroke="#00adef" stroke-width="0.2"/><rect x="0.34" y="12.34" width="14.74" height="0.69" fill="#00adef" stroke="#00adef" stroke-width="0.2"/><path d="M12.79,18.39H11.33a.35.35,0,1,1,0-.7h1.46a.35.35,0,0,1,0,.7Z" transform="translate(0 0)" fill="#00adef" stroke="#00adef" stroke-width="0.2"/><path d="M16.54,9a.32.32,0,0,1-.28-.14.34.34,0,0,1,0-.47h0l1.18-1a.35.35,0,0,1,.47.51h0l-1.18,1A.3.3,0,0,1,16.54,9Z" transform="translate(0 0)" fill="#00adef" stroke="#00adef" stroke-width="0.2"/></svg>