<svg xmlns="http://www.w3.org/2000/svg" width="17.42" height="22.19" viewBox="0 0 17.42 22.19"><title>merchant-dollars</title><path d="M5.86.56h5.86l.6,2.58v0H5.23v0L5.86.56M11.73,0H5.86a.49.49,0,0,0-.52.41L4.71,3a.54.54,0,0,0,.52.71h7.1A.55.55,0,0,0,12.85,3L12.25.41A.49.49,0,0,0,11.73,0Z" transform="translate(0 0)" fill="#00adef"/><line x1="7.8" y1="0.23" x2="7.32" y2="3.59" fill="none" stroke="#00adef" stroke-miterlimit="10" stroke-width="0.7"/><line x1="9.78" y1="0.23" x2="10.23" y2="3.59" fill="none" stroke="#00adef" stroke-miterlimit="10" stroke-width="0.7"/><path d="M4.93,4.63V7.58a.32.32,0,0,0,.3.3h7.28a.32.32,0,0,0,.3-.3V4.63" transform="translate(0 0)" fill="none" stroke="#00adef" stroke-linecap="round" stroke-miterlimit="10" stroke-width="0.7"/><line x1="11.69" y1="4.63" x2="10.27" y2="5.68" fill="none" stroke="#00adef" stroke-linecap="round" stroke-miterlimit="10" stroke-width="0.7"/><line x1="11.69" y1="5.79" x2="10.27" y2="6.84" fill="none" stroke="#00adef" stroke-linecap="round" stroke-miterlimit="10" stroke-width="0.7"/><path d="M9.34,7.54V5a.25.25,0,0,0-.25-.26H7.21A.25.25,0,0,0,6.95,5s0,0,0,0V7.77" transform="translate(0 0)" fill="none" stroke="#00adef" stroke-linecap="round" stroke-miterlimit="10" stroke-width="0.7"/><path d="M17.4,13.94a9.06,9.06,0,0,0-2.84-7.22,2.22,2.22,0,0,0-.43-.33c-.17-.11-.22,0-.3,0l-.22.3c-.07.11-.07.2.07.34.3.19,0,0,.24.18a7.89,7.89,0,0,1,2.84,6.87,8.06,8.06,0,0,1-7.13,7.17A8,8,0,0,1,.9,13.22,7.45,7.45,0,0,1,4.07,7.07a.21.21,0,0,0,.08-.29l0,0-.22-.34a.24.24,0,0,0-.33,0h0A8.25,8.25,0,0,0,0,13.22a8.8,8.8,0,0,0,8.63,9h.52A8.5,8.5,0,0,0,17.4,13.94Z" transform="translate(0 0)" fill="#00adef"/><line x1="8.92" y1="10.57" x2="8.96" y2="9.71" fill="none" stroke="#00adef" stroke-linecap="round" stroke-miterlimit="10" stroke-width="0.7"/><line x1="8.81" y1="17.22" x2="8.85" y2="16.21" fill="none" stroke="#00adef" stroke-linecap="round" stroke-miterlimit="10" stroke-width="0.7"/><path d="M6.72,14.82a5.73,5.73,0,0,0,2.5,1.38c.86.15,1.46-.15,1.57-.9.15-1.08-1.49-1.83-2.65-2.35-1-.45-1.42-1.08-1.16-1.83.78-1.61,3.73.41,3.73.41" transform="translate(0 0)" fill="none" stroke="#00adef" stroke-linecap="round" stroke-miterlimit="10" stroke-width="0.7"/></svg>