<svg xmlns="http://www.w3.org/2000/svg" width="21.12" height="22.94" viewBox="0 0 21.12 22.94"><title>sim-top-up</title><path d="M13.75,17.27a2.85,2.85,0,0,1-.59.64.37.37,0,0,0-.13.25v.39H11.85a.4.4,0,0,0-.42.42h0a.4.4,0,0,0,.38.42h5.63a2,2,0,0,0,2-2h0V8.93a2,2,0,0,0-2-2H9.6a2,2,0,0,0-2,2h0v.25s0,.13.08.13.3.25.47.42a.2.2,0,0,0,.34-.13V8.93A1.14,1.14,0,0,1,9.64,7.79h1.49v2.75H9.39a.14.14,0,0,0-.08.25l.59.55a.13.13,0,0,0,.08,0h8.63v6.05a1.14,1.14,0,0,1-1.13,1.14h-.9V16.76A1.74,1.74,0,0,0,14.85,15h-1a.2.2,0,0,0-.17.3l.13.38a.31.31,0,0,0,.25.21h.72a.89.89,0,0,1,.89.89v1.82H13.88l0-1.27C13.84,17.27,13.79,17.22,13.75,17.27Zm1.14-6.73h-3V7.79h3Zm3.68,0H15.74V7.79h1.69a1.14,1.14,0,0,1,1.14,1.13h0Z" transform="translate(0.01 0)" fill="#00adef"/><path d="M15.74,0H8.21A2.37,2.37,0,0,0,5.84,2.36h0V8.72A.21.21,0,0,0,6,8.93h.43a.24.24,0,0,0,.25-.21V2.37A1.52,1.52,0,0,1,8.24.85h7.55a4.53,4.53,0,0,1,4.53,4.53V18.83A1.34,1.34,0,0,1,19,20.19H11.85a.4.4,0,0,0-.42.42h0a.4.4,0,0,0,.38.42h7.11a2.19,2.19,0,0,0,2.2-2.17s0,0,0,0V5.37A5.38,5.38,0,0,0,15.74,0Z" transform="translate(0.01 0)" fill="#00adef"/><line x1="6.65" y1="14.94" x2="6.65" y2="14.26" fill="none" stroke="#00adef" stroke-linecap="round" stroke-miterlimit="10" stroke-width="0.7"/><line x1="6.65" y1="20.06" x2="6.65" y2="19.3" fill="none" stroke="#00adef" stroke-linecap="round" stroke-miterlimit="10" stroke-width="0.7"/><path d="M5,18.28a4.64,4.64,0,0,0,1.95,1.05c.68.08,1.14-.13,1.23-.72.13-.85-1.19-1.4-2.07-1.78S5,16,5.16,15.44c.59-1.27,2.88.25,2.88.25" transform="translate(0.01 0)" fill="none" stroke="#00adef" stroke-linecap="round" stroke-miterlimit="10" stroke-width="0.7"/><path d="M6.47,10.79a.3.3,0,0,1,.25.13L12,16a.39.39,0,0,1-.25.68H10a.38.38,0,0,0-.38.38h0v4.74a.38.38,0,0,1-.38.38H3.72a.38.38,0,0,1-.38-.38h0V17A.38.38,0,0,0,3,16.63H1.27A.39.39,0,0,1,1,16l5.25-5a.23.23,0,0,1,.21-.13m0-.85a1.18,1.18,0,0,0-.85.34l-5.25,5a1.24,1.24,0,0,0-.3,1.35,1.2,1.2,0,0,0,1.14.76H2.45v4.27a1.23,1.23,0,0,0,1.23,1.23H9.22a1.23,1.23,0,0,0,1.23-1.23V17.44h1.23a1.2,1.2,0,0,0,1.14-.76,1.24,1.24,0,0,0-.3-1.35l-5.2-5A1.18,1.18,0,0,0,6.47,9.95Z" transform="translate(0.01 0)" fill="#00adef"/></svg>