<svg xmlns="http://www.w3.org/2000/svg" width="25.14" height="18.79" viewBox="0 0 25.14 18.79"><title>transfer-to-bank</title><path d="M22.6,3.44H12a.22.22,0,0,0-.17.34l.42.47a.22.22,0,0,0,.17.09h10.1a1.63,1.63,0,0,1,1.65,1.61s0,0,0,0V16.25a1.63,1.63,0,0,1-1.61,1.65H7.24A1.63,1.63,0,0,1,5.59,16.3s0,0,0,0V13.58a.2.2,0,0,0-.19-.21H4.91a.2.2,0,0,0-.21.21v2.67a2.55,2.55,0,0,0,2.55,2.55H22.6a2.55,2.55,0,0,0,2.55-2.55V6A2.55,2.55,0,0,0,22.6,3.44Z" transform="translate(0 0)" fill="#00adef"/><path d="M.5,5.52,4.7.73a.56.56,0,0,1,.89,0L9.88,5.56" transform="translate(0 0)" fill="none" stroke="#00adef" stroke-linecap="round" stroke-miterlimit="10"/><line x1="5.17" y1="1.31" x2="5.17" y2="10.65" fill="none" stroke="#00adef" stroke-linecap="round" stroke-miterlimit="10"/><line x1="14.92" y1="8.19" x2="14.92" y2="7.21" fill="none" stroke="#00adef" stroke-linecap="round" stroke-miterlimit="10"/><line x1="14.92" y1="15.57" x2="14.92" y2="14.46" fill="none" stroke="#00adef" stroke-linecap="round" stroke-miterlimit="10"/><path d="M12.59,13a5.81,5.81,0,0,0,2.8,1.49c1,.13,1.65-.21,1.74-1,.17-1.19-1.7-2-3-2.59-1.1-.47-1.61-1.19-1.36-2,.85-1.82,4.16.38,4.16.38" transform="translate(0 0)" fill="none" stroke="#00adef" stroke-linecap="round" stroke-miterlimit="10"/></svg>